<svg t="1682675782963" class="icon" viewBox="0 0 1071 1024" version="1.1" xmlns="http://www.w3.org/2000/svg" p-id="3411" width="200" height="200"><path d="M814.518427 465.473078a254.362469 254.362469 0 0 0-165.4636 60.972523 325.807371 325.807371 0 1 0-19.315723 370.954963A255.991506 255.991506 0 1 0 814.518427 465.473078z" fill="#FF3B61" p-id="3412"></path><path d="M416.800715 443.597441c-6.748867 0-15.126771 55.154534 37.235128 80.986403s101.000285-12.799575 98.44037-18.617564-36.30425 1.629037-77.030171-19.548442-51.89646-44.216715-58.645327-42.820397zM831.972394 503.173646c-4.654391-2.094476-20.013881 20.94476-55.387253 31.184419s-54.456375 3.258074-57.714449 7.679746 21.642918 40.493202 66.325072 26.530028 51.431021-63.299718 46.77663-65.394193z" fill="#ED0C4C" p-id="3413"></path><path d="M719.336131 403.569678c-25.366431-51.198301-58.645327-105.654676-70.979463-125.668557l10.705099-18.850284A1728.408103 1728.408103 0 0 0 773.792506 12.600833c1.396317-7.447026-42.587678-16.057649-50.034703-11.170539s-1.861756 10.47238-7.447026 25.83187c-11.635978 32.348018-37.002409 95.182296-79.822806 186.175641-103.79292 223.410769-190.830032 295.786549-170.350711 288.106804s83.08088-61.9034 162.903685-191.76091a1007.908374 1007.908374 0 0 1 88.666149 132.650144c29.788102 52.594618 55.852692 122.177764 60.507083 106.352835a777.516019 777.516019 0 0 0-58.878046-145.217z" fill="#604D42" p-id="3414"></path><path d="M634.626215 239.502395S573.653692 139.665707 461.715589 136.407634s-204.793205 93.08782-204.793205 93.08782A362.34434 362.34434 0 0 0 488.711056 297.682282c104.258359-5.585269 145.915158-58.179888 145.915159-58.179887z" fill="#73D36E" p-id="3415"></path><path d="M157.085697 540.176054c-3.490793 14.894051 27.693627 41.6568 38.864165 18.384845C232.719551 484.788801 265.300288 474.78186 255.991506 467.800274c-26.06459-19.781162-93.08782 42.354958-98.905809 72.37578zM293.692073 424.747157a20.246601 20.246601 0 0 0-14.894051 23.271955c2.792635 10.23966 13.032295 11.868697 23.271955 8.843343s18.152125-9.541502 15.35949-19.781162a19.548442 19.548442 0 0 0-23.737394-12.334136zM592.736696 693.538238c0 11.635978 30.020822 23.271955 32.813456 3.956232 8.610623-62.13612 30.718981-77.262891 23.271955-80.288245-25.133711-8.145184-58.179888 52.827338-56.085411 76.332013zM685.591796 581.832854a14.894051 14.894051 0 0 0-20.944759-3.723513 15.35949 15.35949 0 0 0-5.11983 20.944759c4.421671 6.748867 12.334136 5.585269 19.548442 0s10.937819-11.635978 6.516147-17.221246z" fill="#FFFFFF" p-id="3416"></path><path d="M784.497605 431.263304a267.162044 267.162044 0 0 0-262.973092 218.989098 11.635978 11.635978 0 0 0 9.308782 13.497734 11.868697 11.868697 0 0 0 13.497734-9.308782 243.890089 243.890089 0 1 1 10.705099 127.995752 11.635978 11.635978 0 0 0-21.875637 7.912465 265.300288 265.300288 0 0 0 46.54391 80.520965 313.473235 313.473235 0 1 1-107.050994-493.598167 11.635978 11.635978 0 1 0 9.541502-21.177479 337.210629 337.210629 0 1 0 113.334421 531.996892 267.162044 267.162044 0 1 0 188.037397-456.828478z" fill="#604D42" p-id="3417"></path><path d="M531.066015 742.176624h1.396317a11.635978 11.635978 0 0 0 10.006941-13.032295 245.984565 245.984565 0 0 1-1.861757-30.9517 11.635978 11.635978 0 1 0-23.271955 0 270.187398 270.187398 0 0 0 2.094476 33.511615 11.635978 11.635978 0 0 0 11.635978 10.47238zM438.909073 288.838939h19.548442c108.91275-5.817989 153.362184-60.274364 155.22394-62.601559a11.635978 11.635978 0 0 0 0-13.265014c-2.559915-4.421671-65.626913-105.654676-182.452128-108.68003s-209.447596 93.08782-213.403828 96.578613a11.635978 11.635978 0 0 0 0 17.221247 370.024086 370.024086 0 0 0 221.083574 70.746743z m-7.447026-161.740087c86.571673 2.327196 141.958926 67.954109 158.249294 90.295185a209.447596 209.447596 0 0 1-132.417424 47.707508 355.828193 355.828193 0 0 1-212.007511-57.947168c26.06459-23.271955 99.836687-82.61544 185.942921-80.055525z" fill="#604D42" p-id="3418"></path></svg>